<mxfile host="app.diagrams.net" agent="Mozilla/5.0 (Windows NT 10.0; Win64; x64; rv:141.0) Gecko/20100101 Firefox/141.0" version="27.0.1">
  <diagram name="Page-1" id="BXFBb5s3PX1j7KHvRTwh">
    <mxGraphModel dx="947" dy="486" grid="1" gridSize="10" guides="1" tooltips="1" connect="1" arrows="1" fold="1" page="1" pageScale="1" pageWidth="850" pageHeight="1100" math="0" shadow="0">
      <root>
        <mxCell id="0" />
        <mxCell id="1" parent="0" />
        <mxCell id="zgqzQQ3cS3vmd_OXw90c-5" style="edgeStyle=orthogonalEdgeStyle;rounded=0;orthogonalLoop=1;jettySize=auto;html=1;entryX=0;entryY=0.5;entryDx=0;entryDy=0;" edge="1" parent="1" source="zgqzQQ3cS3vmd_OXw90c-3" target="zgqzQQ3cS3vmd_OXw90c-4">
          <mxGeometry relative="1" as="geometry" />
        </mxCell>
        <mxCell id="zgqzQQ3cS3vmd_OXw90c-3" value="SLAM" style="rounded=1;whiteSpace=wrap;html=1;" vertex="1" parent="1">
          <mxGeometry x="110" y="130" width="110" height="60" as="geometry" />
        </mxCell>
        <mxCell id="zgqzQQ3cS3vmd_OXw90c-7" style="edgeStyle=orthogonalEdgeStyle;rounded=0;orthogonalLoop=1;jettySize=auto;html=1;entryX=0;entryY=0.5;entryDx=0;entryDy=0;" edge="1" parent="1" source="zgqzQQ3cS3vmd_OXw90c-4" target="zgqzQQ3cS3vmd_OXw90c-6">
          <mxGeometry relative="1" as="geometry" />
        </mxCell>
        <mxCell id="zgqzQQ3cS3vmd_OXw90c-4" value="Map midline generation" style="rounded=1;whiteSpace=wrap;html=1;" vertex="1" parent="1">
          <mxGeometry x="350" y="130" width="120" height="60" as="geometry" />
        </mxCell>
        <mxCell id="zgqzQQ3cS3vmd_OXw90c-10" style="edgeStyle=orthogonalEdgeStyle;rounded=0;orthogonalLoop=1;jettySize=auto;html=1;entryX=1;entryY=0.5;entryDx=0;entryDy=0;" edge="1" parent="1" source="zgqzQQ3cS3vmd_OXw90c-6" target="zgqzQQ3cS3vmd_OXw90c-8">
          <mxGeometry relative="1" as="geometry">
            <Array as="points">
              <mxPoint x="760" y="160" />
              <mxPoint x="760" y="320" />
            </Array>
          </mxGeometry>
        </mxCell>
        <mxCell id="zgqzQQ3cS3vmd_OXw90c-6" value="Spline smoothing" style="rounded=1;whiteSpace=wrap;html=1;" vertex="1" parent="1">
          <mxGeometry x="590" y="130" width="130" height="60" as="geometry" />
        </mxCell>
        <mxCell id="zgqzQQ3cS3vmd_OXw90c-12" style="edgeStyle=orthogonalEdgeStyle;rounded=0;orthogonalLoop=1;jettySize=auto;html=1;entryX=1;entryY=0.5;entryDx=0;entryDy=0;" edge="1" parent="1" source="zgqzQQ3cS3vmd_OXw90c-8" target="zgqzQQ3cS3vmd_OXw90c-11">
          <mxGeometry relative="1" as="geometry" />
        </mxCell>
        <mxCell id="zgqzQQ3cS3vmd_OXw90c-8" value="Optimal racing line generation" style="rounded=1;whiteSpace=wrap;html=1;" vertex="1" parent="1">
          <mxGeometry x="570" y="290" width="110" height="60" as="geometry" />
        </mxCell>
        <mxCell id="zgqzQQ3cS3vmd_OXw90c-11" value="&lt;div&gt;MPC + LQR&lt;/div&gt;" style="rounded=1;whiteSpace=wrap;html=1;" vertex="1" parent="1">
          <mxGeometry x="230" y="290" width="120" height="60" as="geometry" />
        </mxCell>
        <mxCell id="zgqzQQ3cS3vmd_OXw90c-13" value="map.pgm" style="text;html=1;align=center;verticalAlign=middle;resizable=0;points=[];autosize=1;strokeColor=none;fillColor=none;" vertex="1" parent="1">
          <mxGeometry x="250" y="130" width="70" height="30" as="geometry" />
        </mxCell>
        <mxCell id="zgqzQQ3cS3vmd_OXw90c-14" value="midline.csv" style="text;html=1;align=center;verticalAlign=middle;resizable=0;points=[];autosize=1;strokeColor=none;fillColor=none;" vertex="1" parent="1">
          <mxGeometry x="490" y="130" width="80" height="30" as="geometry" />
        </mxCell>
        <mxCell id="zgqzQQ3cS3vmd_OXw90c-15" value="&lt;div&gt;smoothed_midline.csv&lt;/div&gt;" style="text;html=1;align=center;verticalAlign=middle;resizable=0;points=[];autosize=1;strokeColor=none;fillColor=none;" vertex="1" parent="1">
          <mxGeometry x="620" y="230" width="140" height="30" as="geometry" />
        </mxCell>
        <mxCell id="zgqzQQ3cS3vmd_OXw90c-16" value="&lt;div&gt;mini-time_velocity_profile.csv&lt;/div&gt;" style="text;html=1;align=center;verticalAlign=middle;resizable=0;points=[];autosize=1;strokeColor=none;fillColor=none;" vertex="1" parent="1">
          <mxGeometry x="370" y="290" width="180" height="30" as="geometry" />
        </mxCell>
      </root>
    </mxGraphModel>
  </diagram>
</mxfile>
